<mxfile host="app.diagrams.net" modified="2020-12-07T10:35:50.117Z" agent="5.0 (Windows NT 10.0; Win64; x64) AppleWebKit/537.36 (KHTML, like Gecko) Chrome/86.0.4240.198 Safari/537.36" etag="laOrMJ6fzktREpy8zDUh" version="13.10.9" type="github">
  <diagram id="TG6XzwXoIYnEAT9lUZbn" name="第 1 页">
    <mxGraphModel dx="1199" dy="664" grid="1" gridSize="10" guides="1" tooltips="1" connect="1" arrows="1" fold="1" page="1" pageScale="1" pageWidth="827" pageHeight="1169" math="0" shadow="0">
      <root>
        <mxCell id="0" />
        <mxCell id="1" parent="0" />
        <mxCell id="LBYuOyS8AOBwnRv0mSZE-3" value="" style="rounded=0;whiteSpace=wrap;html=1;" vertex="1" parent="1">
          <mxGeometry x="90" y="330" width="430" height="170" as="geometry" />
        </mxCell>
        <mxCell id="LBYuOyS8AOBwnRv0mSZE-4" value="用户修改" style="rounded=0;whiteSpace=wrap;html=1;" vertex="1" parent="1">
          <mxGeometry x="110" y="395" width="120" height="60" as="geometry" />
        </mxCell>
        <mxCell id="LBYuOyS8AOBwnRv0mSZE-5" value="角色管理" style="rounded=0;whiteSpace=wrap;html=1;" vertex="1" parent="1">
          <mxGeometry x="245" y="395" width="120" height="60" as="geometry" />
        </mxCell>
        <mxCell id="LBYuOyS8AOBwnRv0mSZE-6" value="角色分配" style="rounded=0;whiteSpace=wrap;html=1;" vertex="1" parent="1">
          <mxGeometry x="390" y="395" width="120" height="60" as="geometry" />
        </mxCell>
        <mxCell id="LBYuOyS8AOBwnRv0mSZE-7" value="&lt;b&gt;用户管理模块&lt;/b&gt;" style="text;html=1;strokeColor=none;fillColor=none;align=center;verticalAlign=middle;whiteSpace=wrap;rounded=0;" vertex="1" parent="1">
          <mxGeometry x="210" y="350" width="200" height="40" as="geometry" />
        </mxCell>
      </root>
    </mxGraphModel>
  </diagram>
</mxfile>
